<?xml version="1.0" standalone="no"?>
<!DOCTYPE svg PUBLIC "-//W3C//DTD SVG 20010904//EN"
 "http://www.w3.org/TR/2001/REC-SVG-20010904/DTD/svg10.dtd">
<svg version="1.0" xmlns="http://www.w3.org/2000/svg"
 width="200.000000pt" height="200.000000pt" viewBox="0 0 200.000000 200.000000"
 preserveAspectRatio="xMidYMid meet">

<g transform="translate(0.000000,200.000000) scale(0.100000,-0.100000)"
fill="#000000" stroke="none">
<path d="M953 1499 l-73 -50 0 -52 c0 -50 -2 -53 -35 -71 -33 -18 -35 -22 -33
-65 1 -44 2 -44 5 -8 4 31 11 42 44 62 37 24 39 28 39 75 0 48 1 50 57 89 31
23 60 41 65 41 4 0 8 -29 8 -64 0 -44 5 -67 15 -76 8 -7 15 -21 15 -31 0 -11
5 -19 10 -19 18 0 11 46 -10 65 -16 15 -20 31 -20 87 0 37 -3 68 -7 67 -5 0
-41 -22 -80 -50z"/>
<path d="M990 1410 c0 -5 5 -10 10 -10 6 0 10 5 10 10 0 6 -4 10 -10 10 -5 0
-10 -4 -10 -10z"/>
<path d="M990 1370 c0 -5 5 -10 10 -10 6 0 10 5 10 10 0 6 -4 10 -10 10 -5 0
-10 -4 -10 -10z"/>
<path d="M990 1300 c0 -5 5 -10 10 -10 6 0 10 5 10 10 0 6 -4 10 -10 10 -5 0
-10 -4 -10 -10z"/>
<path d="M1030 1300 c0 -5 5 -10 11 -10 5 0 7 5 4 10 -3 6 -8 10 -11 10 -2 0
-4 -4 -4 -10z"/>
<path d="M1063 1290 c-3 -11 -12 -20 -19 -20 -11 0 -14 -26 -14 -130 l0 -130
-99 0 c-55 0 -102 4 -105 8 -3 5 4 16 16 26 23 20 21 56 -7 122 l-17 39 -19
-42 c-32 -70 -34 -99 -10 -119 30 -27 26 -34 -20 -34 -24 0 -38 -4 -34 -10 7
-11 517 -15 528 -4 17 18 -44 83 -79 84 -22 0 -64 -38 -64 -59 0 -8 -13 -11
-37 -9 l-38 3 -3 118 -3 117 70 0 70 0 4 -72 3 -73 2 83 c2 64 -1 82 -12 82
-7 0 -16 9 -19 20 -4 16 -14 20 -47 20 -33 0 -43 -4 -47 -20z m77 -10 c0 -5
-13 -10 -30 -10 -16 0 -30 5 -30 10 0 6 14 10 30 10 17 0 30 -4 30 -10z m-300
-192 c0 -33 -20 -48 -21 -16 -1 23 -1 23 -9 -2 -6 -22 -8 -23 -15 -7 -4 10 -2
37 5 60 l12 41 14 -24 c7 -14 13 -37 14 -52z m367 -38 c3 -11 12 -20 20 -20 8
0 11 -4 8 -10 -6 -10 -95 -14 -95 -5 0 3 7 17 16 30 20 30 44 32 51 5z"/>
<path d="M990 1260 c0 -5 5 -10 10 -10 6 0 10 5 10 10 0 6 -4 10 -10 10 -5 0
-10 -4 -10 -10z"/>
<path d="M1093 1223 c15 -2 37 -2 50 0 12 2 0 4 -28 4 -27 0 -38 -2 -22 -4z"/>
<path d="M990 1190 c0 -5 5 -10 10 -10 6 0 10 5 10 10 0 6 -4 10 -10 10 -5 0
-10 -4 -10 -10z"/>
<path d="M1070 1190 c0 -5 21 -10 46 -10 27 0 43 4 39 10 -3 6 -24 10 -46 10
-21 0 -39 -4 -39 -10z"/>
<path d="M990 1150 c0 -5 5 -10 10 -10 6 0 10 5 10 10 0 6 -4 10 -10 10 -5 0
-10 -4 -10 -10z"/>
<path d="M1070 1150 c0 -5 18 -10 39 -10 22 0 43 5 46 10 4 6 -12 10 -39 10
-25 0 -46 -4 -46 -10z"/>
<path d="M1093 1113 c15 -2 37 -2 50 0 12 2 0 4 -28 4 -27 0 -38 -2 -22 -4z"/>
<path d="M990 1080 c0 -5 5 -10 10 -10 6 0 10 5 10 10 0 6 -4 10 -10 10 -5 0
-10 -4 -10 -10z"/>
<path d="M1070 1080 c0 -5 14 -10 30 -10 17 0 30 5 30 10 0 6 -13 10 -30 10
-16 0 -30 -4 -30 -10z"/>
<path d="M990 1040 c0 -5 5 -10 10 -10 6 0 10 5 10 10 0 6 -4 10 -10 10 -5 0
-10 -4 -10 -10z"/>
<path d="M1070 1040 c0 -5 7 -10 15 -10 8 0 15 5 15 10 0 6 -7 10 -15 10 -8 0
-15 -4 -15 -10z"/>
<path d="M930 845 c0 -78 3 -95 15 -95 12 0 15 17 15 95 0 78 -3 95 -15 95
-12 0 -15 -17 -15 -95z"/>
<path d="M743 893 c-21 -8 -15 -50 13 -83 20 -23 24 -34 16 -42 -8 -8 -13 -7
-18 5 -9 24 -24 21 -24 -4 0 -17 5 -20 33 -17 42 4 47 34 12 76 -15 18 -23 37
-19 43 5 9 11 7 20 -6 17 -23 32 -11 18 13 -12 18 -31 24 -51 15z"/>
<path d="M830 881 c-12 -24 -13 -101 -1 -119 5 -8 21 -12 37 -10 28 3 29 5 32
61 2 35 -2 64 -9 73 -16 20 -47 17 -59 -5z m48 -41 c4 -42 -6 -83 -18 -75 -15
10 -13 118 3 113 6 -3 13 -19 15 -38z"/>
<path d="M996 878 c-18 -26 -21 -80 -6 -109 13 -23 58 -26 67 -4 8 23 -7 33
-18 12 -13 -23 -29 -13 -29 19 0 19 5 24 25 24 21 0 25 5 25 28 0 51 -37 68
-64 30z m41 -32 c-4 -9 -11 -16 -17 -16 -11 0 -14 33 -3 44 11 10 26 -11 20
-28z"/>
<path d="M1080 896 c0 -2 7 -20 15 -40 14 -32 14 -39 0 -66 -18 -36 -19 -40
-1 -40 7 0 17 10 20 23 l7 22 9 -22 c5 -13 16 -23 25 -23 14 0 14 3 -1 31 -15
30 -15 44 1 97 5 13 3 22 -4 22 -6 0 -14 -12 -17 -26 l-7 -27 -14 27 c-11 21
-33 36 -33 22z"/>
<path d="M1192 888 c-14 -14 -16 -38 -3 -38 5 0 11 7 15 15 9 24 26 18 26 -9
0 -16 -7 -27 -20 -31 -21 -7 -37 -46 -25 -64 3 -6 22 -11 41 -11 l34 0 0 63
c0 64 -11 87 -40 87 -9 0 -21 -5 -28 -12z m34 -115 c-2 -3 -9 -2 -15 2 -8 4
-7 13 1 28 l13 22 3 -23 c2 -13 1 -26 -2 -29z"/>
</g>
</svg>
